<mxfile host="app.diagrams.net" modified="2024-03-04T04:38:08.716Z" agent="Mozilla/5.0 (X11; Ubuntu; Linux x86_64; rv:123.0) Gecko/20100101 Firefox/123.0" version="24.0.1" etag="5NxoTWA5FHEFIC9u5fSY" type="device">
  <diagram id="v0cY3lPIe1S7QzRT2int" name="PÃ¡gina-1">
    <mxGraphModel dx="2732" dy="3840" grid="1" gridSize="75" guides="1" tooltips="1" connect="1" arrows="1" fold="1" page="1" pageScale="1" pageWidth="900" pageHeight="1125" background="#ffffff" math="0" shadow="0">
      <root>
        <mxCell id="0" />
        <mxCell id="1" parent="0" />
        <mxCell id="7ed1abbb-8a8e-4fce-ba85-fd7d3c792e48" value="" style="html=1;shape=stencil(5ZPPEoIgEMafhmOOwgjezd6DdEsmEgdN6+0Dl9Q69OfcieX79ge7O0BY3tWyBULjkbAtoVTwLBKpC5xUo5QknEZBkl0LZY/6IK2Sew3odL01JxhV1QdMNTVY1XuXFYTlB2PhaM2lqXCPQGm0sQ7HdQIJZcBBQDbFu3U2Hu+KXa5hItQWElvpHR+dzeAbu2LeJlkauwWJpzyiT7RWzYoRafwjwJKH/2DS+D0Sf8gutelg3rlgaRBnMnsHpfW34/yjKfmxrJ3Xd+gk/AOsuAM=);" parent="1" vertex="1">
          <mxGeometry x="1031.25" y="-543.75" width="768.75" height="1162.5" as="geometry" />
        </mxCell>
        <mxCell id="e7f19a89-da0f-4014-9169-94c8e1a43fa5-dafcf50c-2202-48f1-ac45-6bec6dbe9527" value="" style="startArrow=none;endArrow=classic;dashed=0;strokeColor=#000000;strokeWidth=2;}" parent="1" source="e7f19a89-da0f-4014-9169-94c8e1a43fa5" target="dafcf50c-2202-48f1-ac45-6bec6dbe9527" edge="1">
          <mxGeometry width="50" height="50" relative="1" as="geometry" />
        </mxCell>
        <mxCell id="dde1e49f-831a-4ad3-8cb5-7b411be3db7f-c68cc323-9133-4e68-b9a9-8ae8f8210f9b" value="" style="startArrow=none;endArrow=none;dashed=0;strokeColor=#000000;strokeWidth=2;}" parent="1" source="dde1e49f-831a-4ad3-8cb5-7b411be3db7f" target="c68cc323-9133-4e68-b9a9-8ae8f8210f9b" edge="1">
          <mxGeometry width="50" height="50" relative="1" as="geometry" />
        </mxCell>
        <mxCell id="4da197a5-ea19-4b1f-a3ca-01be11c1fdf2-4646bfca-7ff0-46bb-a41a-18ecc113d0f0" value="" style="startArrow=none;endArrow=none;dashed=0;strokeColor=#000000;strokeWidth=2;}" parent="1" source="4da197a5-ea19-4b1f-a3ca-01be11c1fdf2" target="4646bfca-7ff0-46bb-a41a-18ecc113d0f0" edge="1">
          <mxGeometry width="50" height="50" relative="1" as="geometry" />
        </mxCell>
        <mxCell id="38d13b1c-dedf-4cd0-b954-932dcf5bc143-a3ec1f6b-5764-42ff-a705-1dddfc83b727" value="" style="startArrow=none;endArrow=none;dashed=0;strokeColor=#000000;strokeWidth=2;}" parent="1" source="38d13b1c-dedf-4cd0-b954-932dcf5bc143" edge="1">
          <mxGeometry width="50" height="50" relative="1" as="geometry">
            <mxPoint x="525" y="75" as="targetPoint" />
          </mxGeometry>
        </mxCell>
        <mxCell id="068dcd85-035a-4cb2-8e21-47c17c69b04e-dde1e49f-831a-4ad3-8cb5-7b411be3db7f" value="" style="startArrow=none;endArrow=none;dashed=0;strokeColor=#000000;strokeWidth=2;}" parent="1" source="068dcd85-035a-4cb2-8e21-47c17c69b04e" target="dde1e49f-831a-4ad3-8cb5-7b411be3db7f" edge="1">
          <mxGeometry width="50" height="50" relative="1" as="geometry" />
        </mxCell>
        <mxCell id="fc559d08-f706-4a82-8024-5d5800e0bdd9-c5ec46fd-6721-4289-880f-c5719904d2cd" value="" style="startArrow=none;endArrow=none;dashed=0;strokeColor=#000000;strokeWidth=2;}" parent="1" source="fc559d08-f706-4a82-8024-5d5800e0bdd9" target="c5ec46fd-6721-4289-880f-c5719904d2cd" edge="1">
          <mxGeometry width="50" height="50" relative="1" as="geometry" />
        </mxCell>
        <mxCell id="6ce81615-a4c3-4f0d-a327-a0dc90f3d319-38d13b1c-dedf-4cd0-b954-932dcf5bc143" value="" style="startArrow=none;endArrow=none;dashed=0;strokeColor=#000000;strokeWidth=2;}" parent="1" source="6ce81615-a4c3-4f0d-a327-a0dc90f3d319" target="38d13b1c-dedf-4cd0-b954-932dcf5bc143" edge="1">
          <mxGeometry width="50" height="50" relative="1" as="geometry" />
        </mxCell>
        <mxCell id="e3721ad7-eefc-4d86-b650-a966060866b4-3aec5a31-d779-410c-97d0-6d66d6574100" value="" style="startArrow=none;endArrow=classic;dashed=0;strokeColor=#000000;strokeWidth=2;}" parent="1" source="e3721ad7-eefc-4d86-b650-a966060866b4" target="3aec5a31-d779-410c-97d0-6d66d6574100" edge="1">
          <mxGeometry width="50" height="50" relative="1" as="geometry" />
        </mxCell>
        <mxCell id="4646bfca-7ff0-46bb-a41a-18ecc113d0f0-fc559d08-f706-4a82-8024-5d5800e0bdd9" value="" style="startArrow=none;endArrow=classic;dashed=0;strokeColor=#000000;strokeWidth=2;}" parent="1" source="4646bfca-7ff0-46bb-a41a-18ecc113d0f0" target="fc559d08-f706-4a82-8024-5d5800e0bdd9" edge="1">
          <mxGeometry width="50" height="50" relative="1" as="geometry" />
        </mxCell>
        <mxCell id="fc559d08-f706-4a82-8024-5d5800e0bdd9-e3721ad7-eefc-4d86-b650-a966060866b4" value="" style="startArrow=none;endArrow=classic;dashed=0;strokeColor=#000000;strokeWidth=2;}" parent="1" source="fc559d08-f706-4a82-8024-5d5800e0bdd9" target="e3721ad7-eefc-4d86-b650-a966060866b4" edge="1">
          <mxGeometry width="50" height="50" relative="1" as="geometry" />
        </mxCell>
        <mxCell id="c68cc323-9133-4e68-b9a9-8ae8f8210f9b" value="" style="ellipse;fillColor=#000000;" parent="1" vertex="1">
          <mxGeometry x="521.25" y="783.75" width="7.5" height="7.5" as="geometry" />
        </mxCell>
        <mxCell id="dde1e49f-831a-4ad3-8cb5-7b411be3db7f" value="" style="ellipse;fillColor=#000000;" parent="1" vertex="1">
          <mxGeometry x="521.25" y="783.75" width="7.5" height="7.5" as="geometry" />
        </mxCell>
        <mxCell id="38d13b1c-dedf-4cd0-b954-932dcf5bc143" value="" style="ellipse;fillColor=#000000;" parent="1" vertex="1">
          <mxGeometry x="521.25" y="502.5" width="7.5" height="7.5" as="geometry" />
        </mxCell>
        <mxCell id="a3ec1f6b-5764-42ff-a705-1dddfc83b727" value="" style="ellipse;fillColor=#000000;" parent="1" vertex="1">
          <mxGeometry x="521.25" y="71.25" width="7.5" height="7.5" as="geometry" />
        </mxCell>
        <mxCell id="4646bfca-7ff0-46bb-a41a-18ecc113d0f0" value="" style="ellipse;fillColor=#000000;" parent="1" vertex="1">
          <mxGeometry x="521.25" y="-341.25" width="7.5" height="7.5" as="geometry" />
        </mxCell>
        <mxCell id="c5ec46fd-6721-4289-880f-c5719904d2cd" value="" style="ellipse;fillColor=#000000;" parent="1" vertex="1">
          <mxGeometry x="521.25" y="-1110" width="7.5" height="7.5" as="geometry" />
        </mxCell>
        <mxCell id="dafcf50c-2202-48f1-ac45-6bec6dbe9527" value="" style="ellipse;fillColor=#000000;" parent="1" vertex="1">
          <mxGeometry x="1383.75" y="-641.25" width="7.5" height="7.5" as="geometry" />
        </mxCell>
        <mxCell id="e7f19a89-da0f-4014-9169-94c8e1a43fa5" value="" style="image;aspect=fixed;html=1;points=[];align=center;fontSize=12;image=img/lib/azure2/networking/Load_Balancers.svg;" parent="1" vertex="1">
          <mxGeometry x="1351.5" y="-392.25" width="72" height="72" as="geometry" />
        </mxCell>
        <mxCell id="068dcd85-035a-4cb2-8e21-47c17c69b04e" value="" style="shape=image;imageAspect=0;aspect=fixed;image=data:image/svg+xml,PHN2ZyB4bWxucz0iaHR0cDovL3d3dy53My5vcmcvMjAwMC9zdmciIHdpZHRoPSI0NiIgaGVpZ2h0PSI0NiIgc3R5bGU9ImZpbGw6ICNmZmZmZmY7Ij48Y2lyY2xlIGN4PSIyMyIgY3k9IjIzIiByPSIyMyIgc3R5bGU9ImZpbGw6ICMwMDAwMDA7Ii8+PGcgdHJhbnNmb3JtPSJ0cmFuc2xhdGUoMTEuNSw3KSI+PHN2ZyB4bWxucz0iaHR0cDovL3d3dy53My5vcmcvMjAwMC9zdmciIHdpZHRoPSIyMyIgaGVpZ2h0PSIzMiIgdmlld0JveD0iMCAwIDIzIDMyIj48cGF0aCBkPSJNMjIuODU3IDI0Ljk4MmMwIDIuNjA3LTEuNzE0IDQuNzMyLTMuODA0IDQuNzMySDMuODAzYy0yLjA4OSAwLTMuODA0LTIuMTI1LTMuODA0LTQuNzMyIDAtNC42OTYgMS4xNjEtMTAuMTI1IDUuODM5LTEwLjEyNWE3Ljk3MiA3Ljk3MiAwIDAgMCAxMS4xNzggMGM0LjY3OSAwIDUuODM5IDUuNDI5IDUuODM5IDEwLjEyNXpNMTguMjg2IDkuMTQzYzAgMy43ODYtMy4wNzEgNi44NTctNi44NTcgNi44NTdzLTYuODU3LTMuMDcxLTYuODU3LTYuODU3IDMuMDcxLTYuODU3IDYuODU3LTYuODU3IDYuODU3IDMuMDcxIDYuODU3IDYuODU3eiIvPjwvc3ZnPjwvZz48L3N2Zz4=;direction=east;" parent="1" vertex="1">
          <mxGeometry x="426.9058924055192" y="1326.9058924055191" width="196.18821518896164" height="196.18821518896164" as="geometry" />
        </mxCell>
        <mxCell id="6ce81615-a4c3-4f0d-a327-a0dc90f3d319" value="" style="shape=image;imageAspect=0;aspect=fixed;image=data:image/svg+xml,PHN2ZyB4bWxucz0iaHR0cDovL3d3dy53My5vcmcvMjAwMC9zdmciIHdpZHRoPSI0NiIgaGVpZ2h0PSI0NiIgc3R5bGU9ImZpbGw6ICNmZmZmZmY7Ij48Y2lyY2xlIGN4PSIyMyIgY3k9IjIzIiByPSIyMyIgc3R5bGU9ImZpbGw6ICMwMDAwMDA7Ii8+PGcgdHJhbnNmb3JtPSJ0cmFuc2xhdGUoOS41LDcpIj48c3ZnIHhtbG5zPSJodHRwOi8vd3d3LnczLm9yZy8yMDAwL3N2ZyIgd2lkdGg9IjI3IiBoZWlnaHQ9IjMyIiB2aWV3Qm94PSIwIDAgMjcgMzIiPjxwYXRoIGQ9Ik0xMy43MTQgMi4yODZjNy41NzEgMCAxMy43MTQgNi4xNDMgMTMuNzE0IDEzLjcxNCAwIDYuMDU0LTMuOTI5IDExLjE5Ni05LjM3NSAxMy4wMTgtLjY5Ni4xMjUtLjk0Ni0uMzA0LS45NDYtLjY2MSAwLS40NDYuMDE4LTEuOTI5LjAxOC0zLjc2OCAwLTEuMjg2LS40MjktMi4xMDctLjkyOS0yLjUzNiAzLjA1NC0uMzM5IDYuMjY4LTEuNSA2LjI2OC02Ljc2OCAwLTEuNS0uNTM2LTIuNzE0LTEuNDExLTMuNjc5LjE0My0uMzU3LjYwNy0xLjc1LS4xNDMtMy42NDMtMS4xNDMtLjM1Ny0zLjc2OCAxLjQxMS0zLjc2OCAxLjQxMWExMi44OTUgMTIuODk1IDAgMCAwLTYuODU4IDBTNy42NTkgNy42MDYgNi41MTYgNy45NjNjLS43NSAxLjg5My0uMjg2IDMuMjg2LS4xNDMgMy42NDMtLjg3NS45NjQtMS40MTEgMi4xNzktMS40MTEgMy42NzkgMCA1LjI1IDMuMTk2IDYuNDI5IDYuMjUgNi43NjgtLjM5My4zNTctLjc1Ljk2NC0uODc1IDEuODM5LS43ODYuMzU3LTIuNzg2Ljk2NC0zLjk4Mi0xLjE0My0uNzUtMS4zMDQtMi4xMDctMS40MTEtMi4xMDctMS40MTEtMS4zMzktLjAxOC0uMDg5LjgzOS0uMDg5LjgzOS44OTMuNDExIDEuNTE4IDIgMS41MTggMiAuODA0IDIuNDQ2IDQuNjI1IDEuNjI1IDQuNjI1IDEuNjI1IDAgMS4xNDMuMDE4IDIuMjE0LjAxOCAyLjU1NCAwIC4zNTctLjI1Ljc4Ni0uOTQ2LjY2MS01LjQ0Ni0xLjgyMS05LjM3NS02Ljk2NC05LjM3NS0xMy4wMTggMC03LjU3MSA2LjE0My0xMy43MTQgMTMuNzE0LTEzLjcxNHpNNS4xOTYgMjEuOTgyYy4wMzYtLjA3MS0uMDE4LS4xNjEtLjEyNS0uMjE0LS4xMDctLjAzNi0uMTk2LS4wMTgtLjIzMi4wMzYtLjAzNi4wNzEuMDE4LjE2MS4xMjUuMjE0LjA4OS4wNTQuMTk2LjAzNi4yMzItLjAzNnptLjU1NC42MDdjLjA3MS0uMDU0LjA1NC0uMTc5LS4wMzYtLjI4Ni0uMDg5LS4wODktLjIxNC0uMTI1LS4yODYtLjA1NC0uMDcxLjA1NC0uMDU0LjE3OS4wMzYuMjg2LjA4OS4wODkuMjE0LjEyNS4yODYuMDU0em0uNTM2LjgwNGMuMDg5LS4wNzEuMDg5LS4yMTQgMC0uMzM5LS4wNzEtLjEyNS0uMjE0LS4xNzktLjMwNC0uMTA3LS4wODkuMDU0LS4wODkuMTk2IDAgLjMyMXMuMjMyLjE3OS4zMDQuMTI1em0uNzUuNzVjLjA3MS0uMDcxLjAzNi0uMjMyLS4wNzEtLjMzOS0uMTI1LS4xMjUtLjI4Ni0uMTQzLS4zNTctLjA1NC0uMDg5LjA3MS0uMDU0LjIzMi4wNzEuMzM5LjEyNS4xMjUuMjg2LjE0My4zNTcuMDU0em0xLjAxOC40NDZjLjAzNi0uMTA3LS4wNzEtLjIzMi0uMjMyLS4yODYtLjE0My0uMDM2LS4zMDQuMDE4LS4zMzkuMTI1cy4wNzEuMjMyLjIzMi4yNjhjLjE0My4wNTQuMzA0IDAgLjMzOS0uMTA3em0xLjEyNS4wOWMwLS4xMjUtLjE0My0uMjE0LS4zMDQtLjE5Ni0uMTYxIDAtLjI4Ni4wODktLjI4Ni4xOTYgMCAuMTI1LjEyNS4yMTQuMzA0LjE5Ni4xNjEgMCAuMjg2LS4wODkuMjg2LS4xOTZ6bTEuMDM1LS4xNzljLS4wMTgtLjEwNy0uMTYxLS4xNzktLjMyMS0uMTYxLS4xNjEuMDM2LS4yNjguMTQzLS4yNS4yNjguMDE4LjEwNy4xNjEuMTc5LjMyMS4xNDNzLjI2OC0uMTQzLjI1LS4yNXoiLz48L3N2Zz48L2c+PC9zdmc+;direction=east;" parent="1" vertex="1">
          <mxGeometry x="446.5247139244153" y="634.0247139244153" width="156.9505721511693" height="156.9505721511693" as="geometry" />
        </mxCell>
        <mxCell id="4da197a5-ea19-4b1f-a3ca-01be11c1fdf2" value="" style="shape=image;imageAspect=0;aspect=fixed;image=data:image/svg+xml,PHN2ZyB4bWxucz0iaHR0cDovL3d3dy53My5vcmcvMjAwMC9zdmciIHdpZHRoPSIzMiIgaGVpZ2h0PSIzMiIgc3R5bGU9ImZpbGw6IG51bGw7Ij48Y2lyY2xlIGN4PSIxNiIgY3k9IjE2IiByPSIxNiIgc3R5bGU9ImZpbGw6IHJnYmEoMCwgMCwgMCwgMCk7Ii8+PGcgdHJhbnNmb3JtPSJ0cmFuc2xhdGUoNyw3KSI+PHN2ZyB4bWxucz0iaHR0cDovL3d3dy53My5vcmcvMjAwMC9zdmciIHdpZHRoPSIxOCIgaGVpZ2h0PSIxOCIgdmlld0JveD0iMCAwIDE4IDE4Ij48ZGVmcz48bGluZWFyR3JhZGllbnQgaWQ9ImE2OTg2MDk5LTNiODItNDZlYy1hZTlhLWM4MjE2MTBjOWNjOCIgeDE9IjkiIHgyPSI5IiB5MT0iMTkuODQ4IiB5Mj0iLTEuMDE0IiBncmFkaWVudFRyYW5zZm9ybT0icm90YXRlKDQ1IDkgOSkiIGdyYWRpZW50VW5pdHM9InVzZXJTcGFjZU9uVXNlIj48c3RvcCBvZmZzZXQ9IjAiIHN0b3AtY29sb3I9IiMwMDc4ZDQiLz48c3RvcCBvZmZzZXQ9Ii41MDIiIHN0b3AtY29sb3I9IiM0MDkzZTYiLz48c3RvcCBvZmZzZXQ9Ii43NzUiIHN0b3AtY29sb3I9IiM1ZWEwZWYiLz48L2xpbmVhckdyYWRpZW50PjwvZGVmcz48ZyBpZD0iYmE5ZTM3NmUtMGYwNi00M2M2LWE5Y2MtMDdiMTBiYmZhMTUyIj48Zz48cmVjdCB3aWR0aD0iMTMuMDc5IiBoZWlnaHQ9IjEzLjA3OSIgeD0iMi40NiIgeT0iMi40NiIgZmlsbD0idXJsKCNhNjk4NjA5OS0zYjgyLTQ2ZWMtYWU5YS1jODIxNjEwYzljYzgpIiByeD0iLjYiIHRyYW5zZm9ybT0icm90YXRlKC00NSA5IDkpIi8+PHBhdGggZmlsbD0iI2MzZjFmZiIgZD0ibTE0LjcyOCA4LjczNS0xLjY5Mi0xLjUyNmMtLjIzLS4yMjktLjMzNC0uMTcyLS4zMzQuMTcydi42NzZhLjIxMy4yMTMgMCAwIDEtLjIxMy4yMTIgMi40MSAyLjQxIDAgMCAxLTIuNTQ5LTEuNDlWMy42MmEuMjkxLjI5MSAwIDAgMC0uMjkxLS4yOTFIOC4xOTFhLjI5MS4yOTEgMCAwIDAtLjI5MS4yOTF2Ny45OGEuMTQzLjE0MyAwIDAgMS0uMTQzLjE0M0g2LjFhLjE0NC4xNDQgMCAwIDAtLjEuMjQ1bDIuNjk1IDIuN2EuMzIuMzIgMCAwIDAgLjQ1NCAwbDIuNy0yLjY5NWEuMTQ0LjE0NCAwIDAgMC0uMS0uMjQ1aC0xLjY2NmEuMTQzLjE0MyAwIDAgMS0uMTQzLS4xNDhWOC45MTdhNC40MzcgNC40MzcgMCAwIDAgMi41NDguNy4yMDkuMjA5IDAgMCAxIC4yMTQuMjExdi43M2MwIC4yODYuMTU1LjM1MS4zMzQuMTcybDEuNjkyLTEuNjQ2YS4yMTEuMjExIDAgMCAwIDAtLjM0OVoiLz48L2c+PC9nPjwvc3ZnPjwvZz48L3N2Zz4=;direction=east;" parent="1" vertex="1">
          <mxGeometry x="476.32" width="97.36" height="97.36" as="geometry" />
        </mxCell>
        <mxCell id="fc559d08-f706-4a82-8024-5d5800e0bdd9" value="" style="shape=image;imageAspect=0;aspect=fixed;image=data:image/svg+xml,PHN2ZyB4bWxucz0iaHR0cDovL3d3dy53My5vcmcvMjAwMC9zdmciIHdpZHRoPSI0NiIgaGVpZ2h0PSI0NiIgc3R5bGU9ImZpbGw6ICNmZmZmZmY7Ij48Y2lyY2xlIGN4PSIyMyIgY3k9IjIzIiByPSIyMyIgc3R5bGU9ImZpbGw6ICMwMDAwMDA7Ii8+PGcgdHJhbnNmb3JtPSJ0cmFuc2xhdGUoMTQsNykiPjxzdmcgeG1sbnM9Imh0dHA6Ly93d3cudzMub3JnLzIwMDAvc3ZnIiB3aWR0aD0iMTgiIGhlaWdodD0iMzIiIHZpZXdCb3g9IjAgMCAxOCAzMiI+PHBhdGggZD0iTTUuMTQzIDI2LjI4NmExLjcxNSAxLjcxNSAwIDEgMC0zLjQzLjAwMiAxLjcxNSAxLjcxNSAwIDAgMCAzLjQzLS4wMDJ6bTAtMjAuNTcyYTEuNzE1IDEuNzE1IDAgMSAwLTMuNDMuMDAyIDEuNzE1IDEuNzE1IDAgMCAwIDMuNDMtLjAwMnpNMTYuNTcxIDhhMS43MTUgMS43MTUgMCAxIDAtMy40My4wMDJBMS43MTUgMS43MTUgMCAwIDAgMTYuNTcxIDh6bTEuNzE1IDBhMy40MjggMy40MjggMCAwIDEtMS43MTQgMi45NjRjLS4wNTQgNi40NDYtNC42MjUgNy44NzUtNy42NjEgOC44MzktMi44MzkuODkzLTMuNzY4IDEuMzIxLTMuNzY4IDMuMDU0di40NjRhMy40MjggMy40MjggMCAwIDEgMS43MTQgMi45NjQgMy40MyAzLjQzIDAgMCAxLTYuODU4IDBjMC0xLjI2OC42OTYtMi4zNzUgMS43MTQtMi45NjRWOC42NzhBMy40MjggMy40MjggMCAwIDEtLjAwMSA1LjcxNGEzLjQzIDMuNDMgMCAwIDEgNi44NTggMCAzLjQyOCAzLjQyOCAwIDAgMS0xLjcxNCAyLjk2NHY4Ljg3NWMuOTExLS40NDYgMS44NzUtLjc1IDIuNzUtMS4wMTggMy4zMjEtMS4wNTQgNS4yMTQtMS44MzkgNS4yNS01LjU3MUEzLjQyOCAzLjQyOCAwIDAgMSAxMS40MjkgOGEzLjQzIDMuNDMgMCAwIDEgNi44NTggMHoiLz48L3N2Zz48L2c+PC9zdmc+;direction=east;" parent="1" vertex="1">
          <mxGeometry x="446.5247139244153" y="-772.2252860755847" width="156.9505721511693" height="156.9505721511693" as="geometry" />
        </mxCell>
        <mxCell id="e3721ad7-eefc-4d86-b650-a966060866b4" value="" style="shape=image;imageAspect=0;aspect=fixed;image=data:image/svg+xml,PHN2ZyB4bWxucz0iaHR0cDovL3d3dy53My5vcmcvMjAwMC9zdmciIHdpZHRoPSIzMiIgaGVpZ2h0PSIzMiIgc3R5bGU9ImZpbGw6IG51bGw7Ij48Y2lyY2xlIGN4PSIxNiIgY3k9IjE2IiByPSIxNiIgc3R5bGU9ImZpbGw6IHJnYmEoMCwgMCwgMCwgMCk7Ii8+PGcgdHJhbnNmb3JtPSJ0cmFuc2xhdGUoNyw3KSI+PHN2ZyB4bWxucz0iaHR0cDovL3d3dy53My5vcmcvMjAwMC9zdmciIGlkPSJhNjg1Y2M4Yy0zMmJhLTRkNTQtOTFkYS0zYTEyNWNiNThkZWQiIHdpZHRoPSIxOCIgaGVpZ2h0PSIxOCIgdmlld0JveD0iMCAwIDE4IDE4Ij48Zz48Zz48cGF0aCBmaWxsPSIjOTQ5NDk0IiBkPSJNLjUgMTUuMDhhLjE2LjE2IDAgMCAwIC4wOC4xNGwxLjE2LjY1TDMuNyAxN2EuMTcuMTcgMCAwIDAgLjIzLS4wNmwuNjYtMS4xMmEuMTYuMTYgMCAwIDAtLjA2LS4yMWwtMi4zLTEuM2EuMTcuMTcgMCAwIDEtLjA4LS4xNFYzLjg1YS4xNi4xNiAwIDAgMSAuMDgtLjE0bDIuMy0xLjNhLjE2LjE2IDAgMCAwIC4wNi0uMjFsLS42Ni0xLjEyQS4xNy4xNyAwIDAgMCAzLjcgMUwxLjc4IDIuMTFsLTEuMi42N2EuMTYuMTYgMCAwIDAtLjA4LjE0djEyLjE2WiIvPjxwYXRoIGZpbGw9IiNhM2EzYTMiIGQ9Im0yLjE0IDMuNzcuMDYtLjA2IDIuMy0xLjNhLjE0LjE0IDAgMCAwIC4wNi0uMjFMMy45IDEuMDhBLjE1LjE1IDAgMCAwIDMuNjggMUwxLjc1IDIuMTFsLTEuMTkuNjdzLS4wNSAwLS4wNi4wNmwuOS41MVpNNC41IDE1LjU5bC0yLjMtMS4zYS4yMi4yMiAwIDAgMS0uMDctLjA5bC0xLjYyIDFoLjA1bDEuMTUuNjUgMiAxLjExYS4xNS4xNSAwIDAgMCAuMjItLjA2bC42Ni0xLjEyYS4xNC4xNCAwIDAgMC0uMDktLjE5WiIvPjwvZz48cGF0aCBmaWxsPSIjOTQ5NDk0IiBkPSJNMTcuNSAxNS4wOGEuMTYuMTYgMCAwIDEtLjA4LjE0bC0xLjE2LjY1TDE0LjMgMTdhLjE3LjE3IDAgMCAxLS4yMy0uMDZsLS42Ni0xLjEyYS4xNi4xNiAwIDAgMSAuMDYtLjIxbDIuMy0xLjNhLjE3LjE3IDAgMCAwIC4wOC0uMTRWMy44NWEuMTYuMTYgMCAwIDAtLjA4LS4xNGwtMi4zLTEuM2EuMTYuMTYgMCAwIDEtLjA2LS4yMWwuNjYtMS4xMkEuMTcuMTcgMCAwIDEgMTQuMyAxbDEuOTIgMS4wOSAxLjIuNjdhLjE2LjE2IDAgMCAxIC4wOC4xNHYxMi4xOFoiLz48cGF0aCBmaWxsPSIjYTNhM2EzIiBkPSJtMTUuODYgMy43Ny0uMDYtLjA2LTIuMy0xLjNhLjE0LjE0IDAgMCAxLS4wNi0uMjFsLjY2LTEuMTJhLjE1LjE1IDAgMCAxIC4yMi0uMDhsMS45MyAxLjA5IDEuMTkuNjcuMDYuMDYtLjkuNTFaTTEzLjUgMTUuNTlsMi4zLTEuM2EuMjIuMjIgMCAwIDAgLjA3LS4wOWwxLjYyIDEtMS4xNS42NS0yIDEuMTFhLjE1LjE1IDAgMCAxLS4yMi0uMDZsLS42Ni0xLjEyYS4xNC4xNCAwIDAgMSAuMDQtLjE5WiIvPjxwYXRoIGZpbGw9IiMzMmJlZGQiIGQ9Ik0xNC4zMSA1LjkzdjYuMTRsLTUuMzIgMy4wOVY5LjAxbDUuMzItMy4wOHoiLz48cGF0aCBmaWxsPSIjOWNlYmZmIiBkPSJNMTQuMzEgNS45MyA5IDkuMDIgMy42OCA1LjkzIDkgMi44NGw1LjMxIDMuMDl6Ii8+PHBhdGggZmlsbD0iIzUwZTZmZiIgZD0iTTguOTkgOS4wMnY2LjE0bC01LjMxLTMuMDlWNS45M2w1LjMxIDMuMDl6Ii8+PHBhdGggZmlsbD0iIzljZWJmZiIgZD0ibTMuNjggMTIuMDcgNS4zMS0zLjA2djYuMTVsLTUuMzEtMy4wOXoiLz48cGF0aCBmaWxsPSIjNTBlNmZmIiBkPSJNMTQuMzEgMTIuMDcgOC45OSA5LjAxdjYuMTVsNS4zMi0zLjA5eiIvPjwvZz48L3N2Zz48L2c+PC9zdmc+;direction=east;" parent="1" vertex="1">
          <mxGeometry x="1134.5491502812527" y="-721.7008497187473" width="55.90169943749474" height="55.90169943749474" as="geometry" />
        </mxCell>
        <mxCell id="210be67a-5e3e-4fe0-92bc-3c843498019f" value="" style="shape=image;imageAspect=0;aspect=fixed;image=data:image/svg+xml,PHN2ZyB4bWxucz0iaHR0cDovL3d3dy53My5vcmcvMjAwMC9zdmciIHdpZHRoPSIzMiIgaGVpZ2h0PSIzMiIgc3R5bGU9ImZpbGw6IG51bGw7Ij48Y2lyY2xlIGN4PSIxNiIgY3k9IjE2IiByPSIxNiIgc3R5bGU9ImZpbGw6IHJnYmEoMCwgMCwgMCwgMCk7Ii8+PGcgdHJhbnNmb3JtPSJ0cmFuc2xhdGUoNyw3KSI+PHN2ZyB4bWxucz0iaHR0cDovL3d3dy53My5vcmcvMjAwMC9zdmciIGlkPSJlOWY3YmE3My01NmI4LTQ4NjQtOTZmZi1kY2U4MGJlZjcyOWEiIHdpZHRoPSIxOCIgaGVpZ2h0PSIxOCIgdmlld0JveD0iMCAwIDE4IDE4Ij48ZGVmcz48bGluZWFyR3JhZGllbnQgaWQ9ImJkZjI3ZGM2LTAyNWMtNDgwNS04YmZkLTNhMDVkZWZkM2ZiZCIgeDE9IjguNjM3IiB4Mj0iOC42MzciIHkxPSItMS45OTEiIHkyPSIxNi43MzkiIGdyYWRpZW50VW5pdHM9InVzZXJTcGFjZU9uVXNlIj48c3RvcCBvZmZzZXQ9IjAiIHN0b3AtY29sb3I9IiM1ZWEwZWYiLz48c3RvcCBvZmZzZXQ9IjEiIHN0b3AtY29sb3I9IiMwMDc4ZDQiLz48L2xpbmVhckdyYWRpZW50PjxsaW5lYXJHcmFkaWVudCBpZD0iZmNkNmM2YzctZTJlYi00YTMyLWI5MTQtM2E4NDg1NTg1YTFiIiB4MT0iMTIuOTYiIHgyPSIxMi45NiIgeTE9IjguNTYxIiB5Mj0iNi4xNDEiIGdyYWRpZW50VHJhbnNmb3JtPSJtYXRyaXgoMSAwIDAgLTEgMCAyMCkiIGdyYWRpZW50VW5pdHM9InVzZXJTcGFjZU9uVXNlIj48c3RvcCBvZmZzZXQ9IjAiIHN0b3AtY29sb3I9IiMzMzMxMzIiLz48c3RvcCBvZmZzZXQ9IjEiIHN0b3AtY29sb3I9IiM1YjVhNWMiLz48L2xpbmVhckdyYWRpZW50PjwvZGVmcz48cGF0aCBmaWxsPSJ1cmwoI2JkZjI3ZGM2LTAyNWMtNDgwNS04YmZkLTNhMDVkZWZkM2ZiZCkiIGQ9Im03LjQzIDguMTc4IDIuNTg5LTEuNTczIDcuMjU1IDIuNzMxQTMuNjY0IDMuNjY0IDAgMCAwIDE2LjIzIDcuNDlsLS4wMS0uMDVBNC4xOTQgNC4xOTQgMCAwIDAgMTQgNi4zMmE0LjkxIDQuOTEgMCAwIDAtNS4xLTQuNyA1LjA3MSA1LjA3MSAwIDAgMC00Ljg0IDMuMjlBNC42MjEgNC42MjEgMCAwIDAgMCA5LjM5YTQuNzMgNC43MyAwIDAgMCA0Ljg5IDQuNTRoMi41NFoiLz48cGF0aCBmaWxsPSIjNzY3Njc2IiBkPSJtMTAuMDcgNy4xNTkuMDEgNC4yOCA3LjkxIDEuNjh2LTIuOThsLTcuOTItMi45OHoiLz48cGF0aCBmaWxsPSIjOTk5IiBkPSJtMTAuMDcgNy4xNTktMi4xNCAxLjN2My45OGwyLjE1LTEiLz48cGF0aCBmaWxsPSIjYTNhM2EzIiBkPSJtMTMuNjggMTEuNDk5LjcyLjJ2LTIuMzNsLS43Mi0uMjV2Mi4zOHpNMTIuOTYgOC44ODlsLS43Mi0uMjZ2Mi40OWwuNzIuMnYtMi40M3pNMTUuMTIgMTEuODg5bC43LjE5LjAyLTIuMjItLjcyLS4yNHYyLjI3ek0xMC44MSAxMC43NDlsLjcyLjE4di0yLjUzbC0uNzItLjI0djIuNTl6TTE3LjI3IDEwLjM0OWwtLjcyLS4yNXYyLjE3bC43Mi4ydi0yLjEyeiIvPjxwYXRoIGlkPSJlZjBkMWI1NC1hMWU3LTRjYjktYTRlNS04YTg1MThlN2MxMjciIGZpbGw9IiNiM2IzYjMiIGQ9Im04LjY2IDExLjM2OS0uMzYuMjF2LTIuODNsLjM2LS4xOVptLjcxLTMuMjItLjM3LjI0djIuNzVsLjM3LS4yWiIvPjxwYXRoIGZpbGw9InVybCgjZmNkNmM2YzctZTJlYi00YTMyLWI5MTQtM2E4NDg1NTg1YTFiKSIgZD0ibTE3Ljk5IDEzLjExOS0yLjE2Ljc0LTcuOS0xLjQyIDIuMTUtMSA3LjkxIDEuNjh6Ii8+PHBhdGggZmlsbD0iIzc2NzY3NiIgZD0ibTE3Ljk5IDE2LjE2OS03Ljk1IDEuNTEuMDQtNS41OSA3LjkxIDEuNDd2Mi42MXoiLz48cGF0aCBmaWxsPSIjYTNhM2EzIiBkPSJNMTAuODEgMTYuNzU5di0zLjU1bC43Mi4wOXYzLjM0bC0uNzIuMTJ6TTEyLjk2IDE2LjM5OWwtLjcyLjEzdi0zLjE0bC43Mi4xMXYyLjl6TTEzLjY4IDE2LjI4OXYtMi43MmwuNzIuMDl2Mi41bC0uNzIuMTN6TTE1LjgzIDE1LjkwOWwtLjcxLjEzdi0yLjI5bC43MS4xMXYyLjA1ek0xNy4yOSAxNS42NzlsLS43NC4xM3YtMS44OGwuNjkuMDkuMDUgMS42NnoiLz48cGF0aCBpZD0iYjlmMjVlYjQtNGM4OC00NWMyLWJjNGQtZjk5Mjc1N2Q3ZTBlIiBmaWxsPSIjOTk5IiBkPSJNNy45MyAxNi40di0zLjI2bDIuMTYtMXY1LjZaIi8+PHBhdGggaWQ9ImViOTIwMGE3LTQ2OTMtNDQyNy1iZGFlLWIzM2NlOTBmZjdmMiIgZmlsbD0iI2IzYjNiMyIgZD0ibTguNjEgMTYuMzg5LS4zMi0uMTZ2LTIuNzZsLjMyLS4xNVptLjc3LTMuNDUtLjM4LjE5djMuNDhsLjM3LjE5di0zLjg2WiIvPjwvc3ZnPjwvZz48L3N2Zz4=;direction=east;" parent="1" vertex="1">
          <mxGeometry x="468.75" y="-1256" width="131.25" height="131.25" as="geometry" />
        </mxCell>
        <mxCell id="becbf513-faf7-4829-96bf-d92675ae68b6" value="" style="shape=image;imageAspect=0;aspect=fixed;image=data:image/svg+xml,PHN2ZyB4bWxucz0iaHR0cDovL3d3dy53My5vcmcvMjAwMC9zdmciIHdpZHRoPSIzMiIgaGVpZ2h0PSIzMiIgc3R5bGU9ImZpbGw6IG51bGw7Ij48Y2lyY2xlIGN4PSIxNiIgY3k9IjE2IiByPSIxNiIgc3R5bGU9ImZpbGw6IHJnYmEoMCwgMCwgMCwgMCk7Ii8+PGcgdHJhbnNmb3JtPSJ0cmFuc2xhdGUoNyw3KSI+PHN2ZyB4bWxucz0iaHR0cDovL3d3dy53My5vcmcvMjAwMC9zdmciIGlkPSJmYzg5MDEyNy03MjhiLTRhYzAtYjVkYS04NmNkZmMxOTFlODYiIHdpZHRoPSIxOCIgaGVpZ2h0PSIxOCIgdmlld0JveD0iMCAwIDE4IDE4Ij48ZGVmcz48bGluZWFyR3JhZGllbnQgaWQ9ImEyOGRlZTIwLTRjNzEtNDZiNS1iOTU3LTgwNGM2N2RhNzI1YSIgeDE9IjIuNDQiIHgyPSIxNS4yNyIgeTE9IjEwLjY3IiB5Mj0iMTAuNjciIGdyYWRpZW50VHJhbnNmb3JtPSJyb3RhdGUoLS4wMSAtMjg2NC43MTkgLTgwMi4zOSkiIGdyYWRpZW50VW5pdHM9InVzZXJTcGFjZU9uVXNlIj48c3RvcCBvZmZzZXQ9IjAiIHN0b3AtY29sb3I9IiMwMDViYTEiLz48c3RvcCBvZmZzZXQ9Ii4wNyIgc3RvcC1jb2xvcj0iIzAwNjBhOSIvPjxzdG9wIG9mZnNldD0iLjM2IiBzdG9wLWNvbG9yPSIjMDA3MWM4Ii8+PHN0b3Agb2Zmc2V0PSIuNTIiIHN0b3AtY29sb3I9IiMwMDc4ZDQiLz48c3RvcCBvZmZzZXQ9Ii42NCIgc3RvcC1jb2xvcj0iIzAwNzRjZCIvPjxzdG9wIG9mZnNldD0iLjgyIiBzdG9wLWNvbG9yPSIjMDA2YWJiIi8+PHN0b3Agb2Zmc2V0PSIxIiBzdG9wLWNvbG9yPSIjMDA1YmExIi8+PC9saW5lYXJHcmFkaWVudD48L2RlZnM+PHBhdGggZmlsbD0idXJsKCNhMjhkZWUyMC00YzcxLTQ2YjUtYjk1Ny04MDRjNjdkYTcyNWEpIiBkPSJNOSA1LjE0Yy0zLjU0IDAtNi40MS0xLTYuNDEtMi4zMnYxMi4zNmMwIDEuMjcgMi44MiAyLjMgNi4zMiAyLjMySDljMy41NCAwIDYuNDEtMSA2LjQxLTIuMzJWMi44MmMwIDEuMjgtMi44NyAyLjMyLTYuNDEgMi4zMloiLz48cGF0aCBmaWxsPSIjZThlOGU4IiBkPSJNMTUuNDEgMi44MmMwIDEuMjgtMi44NyAyLjMyLTYuNDEgMi4zMnMtNi40MS0xLTYuNDEtMi4zMlM1LjQ2LjUgOSAuNXM2LjQxIDEgNi40MSAyLjMyIi8+PHBhdGggZmlsbD0iIzUwZTZmZiIgZD0iTTEzLjkxIDIuNjNjMCAuODItMi4yIDEuNDgtNC45MSAxLjQ4cy00LjkyLS42Ni00LjkyLTEuNDdTNi4yOCAxLjE2IDkgMS4xNnM0LjkxLjY2IDQuOTEgMS40NyIvPjxwYXRoIGZpbGw9IiMxOThhYjMiIGQ9Ik05IDNhMTEuNjUgMTEuNjUgMCAwIDAtMy45LjU3IDExLjUzIDExLjUzIDAgMCAwIDMuOS41NCAxMS40NyAxMS40NyAwIDAgMCAzLjg5LS41OEExMS45MyAxMS45MyAwIDAgMCA5IDNaIi8+PHBhdGggZmlsbD0iI2YyZjJmMiIgZD0iTTEyIDl2LjQyYTUuMTIgNS4xMiAwIDAgMC0uMDguNjNjMCAuMTIgMCAuMy4wNS40NnMwIC4yNyAwIC4zNmExLjY4IDEuNjggMCAwIDEtLjI1Ljg2LjQzLjQzIDAgMCAwIDAgLjA3bC4xLjEyYTEwLjU1IDEwLjU1IDAgMCAwIDEuMDYtMi4zOGMuMjgtLjk1LjMxLTEuNjMuMDktMS45MmEyLjU4IDIuNTggMCAwIDAtMi42OC0uODYgMy4yOSAzLjI5IDAgMCAxIC45MS42N0EyLjI4IDIuMjggMCAwIDEgMTIgOVptLS4zMS4wOGExLjE1IDEuMTUgMCAwIDAtLjc5LjA5Yy0uMjkuMTgtLjIuNTUgMCAxYTcuNzcgNy43NyAwIDAgMCAuMzUuODVsLjA5LjE2Yy4wNS4wOC4wOC4xNS4xMS4ybC4wOC4xM2ExLjI4IDEuMjggMCAwIDAgLjE4LS42NSAyLjg2IDIuODYgMCAwIDAgMC0uMzNjMC0uMTcgMC0uMzYtLjA1LS40OWE2LjEgNi4xIDAgMCAxIC4wOC0uNjkuNzczLjc3MyAwIDAgMS0uMDEtLjNabS0uMy40MWEuNC40IDAgMCAxLS4xOC4xLjMzLjMzIDAgMCAxLS4xNCAwQS4yMy4yMyAwIDAgMSAxMSA5LjRjMC0uMDcuMTEtLjEzLjI0LS4xNWguMTlzLjA5IDAgLjA5LjA4YS4yLjIgMCAwIDEtLjA5LjEzWm0tNC42OS44OXYtLjE3YTEgMSAwIDAgMCAwLS4xNyA1LjU1IDUuNTUgMCAwIDEgMC0xIDUuMjIgNS4yMiAwIDAgMSAuMy0xLjFBMi40MSAyLjQxIDAgMCAxIDcuNTggN2E0Ljc4IDQuNzggMCAwIDAtMS4zNS0uMiAxLjg3IDEuODcgMCAwIDAtMS4xLjMgMiAyIDAgMCAwLS42MyAxLjgyIDEyLjI3IDEyLjI3IDAgMCAwIC41IDIuMjRjLjM0IDEuMTQuNzMgMS44NCAxLjA3IDEuOTUuMTUuMDUuMzEgMCAuNDctLjIxLjI4LS4zNC41NC0uNjMuNjktLjhhMS44OCAxLjg4IDAgMCAxLS40OS0xLjc1Wm0uMjYuNGEyLjE4IDIuMTggMCAwIDAgLjA2LjU2IDEuNSAxLjUgMCAwIDAgLjI2LjQ0IDEuMDcgMS4wNyAwIDAgMCAuMzUuMjUgMS4wOSAxLjA5IDAgMCAwIC4zOS4wOGMwLS4xNy4xNC0uMzguMjMtLjZhNC4zNSA0LjM1IDAgMCAwIC4yMS0uNTkgNi42MSA2LjYxIDAgMCAwIDAtMS4xMWMwLS4wOSAwLS4xOS0uMDYtLjNhLjQ1LjQ1IDAgMCAwLS4xMi0uMjcuNjYuNjYgMCAwIDAtLjI4LS4xNmgtLjJhMS41NiAxLjU2IDAgMCAwLS40OC4xNCAyIDIgMCAwIDAtLjMyLjE5di43MmEuODYuODYgMCAwIDEgMCAuMTV2LjM5Wm0uNjYtMS4zNGEuNDYuNDYgMCAwIDEgLjI4IDAgLjYuNiAwIDAgMSAuMTkuMDZjLjA5IDAgLjEuMTEuMDkuMTRhLjM3LjM3IDAgMCAxLS4xMi4xMy4zLjMgMCAwIDEtLjA2LS4wNC4zNC4zNCAwIDAgMS0uMjgtLjI4Wm0uNzQgM2EuMjMuMjMgMCAwIDAtLjEzLjA2bC0uMTQuMTdjLS4xNy4yMS0uMjQuMjgtLjczLjM4YS41Mi41MiAwIDAgMC0uMjYuMS41OC41OCAwIDAgMCAuMjQuMTEgMS4xOCAxLjE4IDAgMCAwIC43MiAwIDEuNyAxLjcgMCAwIDAgLjM5LS4yNi42MS42MSAwIDAgMCAuMi0uMzEuMzYuMzYgMCAwIDAtLjEtLjI4LjE1LjE1IDAgMCAwLS4xNS0uMDJabTQuNjEgMGExLjYzIDEuNjMgMCAwIDEtMS4xMyAwIC4yMi4yMiAwIDAgMC0uMTQgMCAuMy4zIDAgMCAwLS4xNy4xNCAxLjA5IDEuMDkgMCAwIDAgMCAuMzEgMS44IDEuOCAwIDAgMCAxLjEtLjEgMS4zNiAxLjM2IDAgMCAwIC40OC0uMzRabS0yLjQtMi4xNGMtLjE0LS40MS0uMzQtMSAuMTgtMS4zNmExLjM1IDEuMzUgMCAwIDEgLjg5LS4xNUEzLjE4IDMuMTggMCAwIDAgMTEgNy42NGwtLjEtLjEtLjA2LS4wNmEuMzQuMzQgMCAwIDAtLjA2LS4wNiAyLjM0IDIuMzQgMCAwIDAtLjY3LS40MkEyLjYzIDIuNjMgMCAwIDAgOSA2Ljc4YTEuNTIgMS41MiAwIDAgMC0uNy4xMUExLjc3IDEuNzcgMCAwIDAgOCA3YTIuMSAyLjEgMCAwIDAtLjc0IDEgNS44NCA1Ljg0IDAgMCAwLS4yMSAxIDEuNjYgMS42NiAwIDAgMSAxLS4yMy44NC44NCAwIDAgMSAuNzcuOTEgNy4yNiA3LjI2IDAgMCAxIDAgMS4yNyAzLjg3IDMuODcgMCAwIDEtLjIzLjYzYy0uMDYuMTctLjE0LjM1LS4xOC40OWEuNS41IDAgMCAxIC4zOC4xNC42Ni42NiAwIDAgMSAuMTkuNTNIOXYuMjRhNi41NSA2LjU1IDAgMCAwIC4yNCAyLjQ0LjU0LjU0IDAgMCAwIC4yNC4yMS42LjYgMCAwIDAgLjMxLjEgMS4zIDEuMyAwIDAgMCAxLS4zNCAxLjA1IDEuMDUgMCAwIDAgLjI5LS42NmMuMDctLjQ1LjIyLTEuNy4yNC0yYS43Mi43MiAwIDAgMSAuMDktLjQ0LjYzLjYzIDAgMCAxIC4yNy0uMjQgNS4zNiA1LjM2IDAgMCAxLTEuMDctMS44MVoiLz48L3N2Zz48L2c+PC9zdmc+;direction=north;" parent="1" vertex="1">
          <mxGeometry x="1346.39" y="-1016.11" width="97.36" height="97.36" as="geometry" />
        </mxCell>
        <mxCell id="5dTZsmveO14SmgYKzAa9-5" value="" style="edgeStyle=orthogonalEdgeStyle;rounded=0;orthogonalLoop=1;jettySize=auto;html=1;" edge="1" parent="1" source="3aec5a31-d779-410c-97d0-6d66d6574100" target="5dTZsmveO14SmgYKzAa9-4">
          <mxGeometry relative="1" as="geometry" />
        </mxCell>
        <mxCell id="3aec5a31-d779-410c-97d0-6d66d6574100" value="" style="shape=image;imageAspect=0;aspect=fixed;image=data:image/svg+xml,PHN2ZyB4bWxucz0iaHR0cDovL3d3dy53My5vcmcvMjAwMC9zdmciIHdpZHRoPSIzMiIgaGVpZ2h0PSIzMiIgc3R5bGU9ImZpbGw6IG51bGw7Ij48Y2lyY2xlIGN4PSIxNiIgY3k9IjE2IiByPSIxNiIgc3R5bGU9ImZpbGw6IHJnYmEoMCwgMCwgMCwgMCk7Ii8+PGcgdHJhbnNmb3JtPSJ0cmFuc2xhdGUoNyw3KSI+PHN2ZyB4bWxucz0iaHR0cDovL3d3dy53My5vcmcvMjAwMC9zdmciIGlkPSJhZjZhMmM0Mi1iZDQ4LTQ4NTctYTQ3OS1hZWNmOGIzZGU0ZjYiIHdpZHRoPSIxOCIgaGVpZ2h0PSIxOCIgdmlld0JveD0iMCAwIDE4IDE4Ij48ZGVmcz48bGluZWFyR3JhZGllbnQgaWQ9ImI3MGM5Y2YxLWJhYjgtNDdlMC1iYmRiLWNlMWNkNjY0ZDI2OCIgeDE9IjIuOTQiIHgyPSI4LjY3IiB5MT0iMy43NCIgeTI9IjMuNzQiIGdyYWRpZW50VW5pdHM9InVzZXJTcGFjZU9uVXNlIj48c3RvcCBvZmZzZXQ9IjAiIHN0b3AtY29sb3I9IiNiNzdhZjQiLz48c3RvcCBvZmZzZXQ9IjEiIHN0b3AtY29sb3I9IiM3NzNhZGMiLz48L2xpbmVhckdyYWRpZW50PjxsaW5lYXJHcmFkaWVudCBpZD0iYmViNjk5NTMtYmQ5Ni00NTE1LTg4NDMtYWMxMjU0NmFmOTM2IiB4MT0iOS4xMyIgeDI9IjE0Ljg1IiB5MT0iMy43OSIgeTI9IjMuNzkiIGdyYWRpZW50VW5pdHM9InVzZXJTcGFjZU9uVXNlIj48c3RvcCBvZmZzZXQ9IjAiIHN0b3AtY29sb3I9IiNiNzdhZjQiLz48c3RvcCBvZmZzZXQ9IjEiIHN0b3AtY29sb3I9IiM3NzNhZGMiLz48L2xpbmVhckdyYWRpZW50PjxsaW5lYXJHcmFkaWVudCBpZD0iYTM5Yzc2ZTgtNTQ3ZS00ZWI0LWJjMjUtZDgxYzBmOGNkYTYyIiB4MT0iLjAxIiB4Mj0iNS43MyIgeTE9IjkuMTIiIHkyPSI5LjEyIiBncmFkaWVudFVuaXRzPSJ1c2VyU3BhY2VPblVzZSI+PHN0b3Agb2Zmc2V0PSIwIiBzdG9wLWNvbG9yPSIjYjc3YWY0Ii8+PHN0b3Agb2Zmc2V0PSIxIiBzdG9wLWNvbG9yPSIjNzczYWRjIi8+PC9saW5lYXJHcmFkaWVudD48bGluZWFyR3JhZGllbnQgaWQ9ImYwYTJhNDkxLTE3ZGMtNGJiOC1iYmZjLWVlNThhNWNmNDdkYSIgeDE9IjYuMTgiIHgyPSIxMS45IiB5MT0iOS4wOCIgeTI9IjkuMDgiIGdyYWRpZW50VW5pdHM9InVzZXJTcGFjZU9uVXNlIj48c3RvcCBvZmZzZXQ9IjAiIHN0b3AtY29sb3I9IiNiNzdhZjQiLz48c3RvcCBvZmZzZXQ9IjEiIHN0b3AtY29sb3I9IiM3NzNhZGMiLz48L2xpbmVhckdyYWRpZW50PjxsaW5lYXJHcmFkaWVudCBpZD0iZWZjNmE1NmQtODU4NS00MTdkLTkzMWEtMWRhYzIxMTRjY2QwIiB4MT0iMTIuMzUiIHgyPSIxOC4wOCIgeTE9IjkuMTMiIHkyPSI5LjEzIiBncmFkaWVudFVuaXRzPSJ1c2VyU3BhY2VPblVzZSI+PHN0b3Agb2Zmc2V0PSIwIiBzdG9wLWNvbG9yPSIjYjc3YWY0Ii8+PHN0b3Agb2Zmc2V0PSIxIiBzdG9wLWNvbG9yPSIjNzczYWRjIi8+PC9saW5lYXJHcmFkaWVudD48bGluZWFyR3JhZGllbnQgaWQ9ImUzOTlhYTkzLTM0MWYtNGRmMi05YzAyLTYwM2I4MmI0ODRjMiIgeDE9IjIuODciIHgyPSI4LjYiIHkxPSIxNC41NiIgeTI9IjE0LjU2IiBncmFkaWVudFVuaXRzPSJ1c2VyU3BhY2VPblVzZSI+PHN0b3Agb2Zmc2V0PSIwIiBzdG9wLWNvbG9yPSIjYjc3YWY0Ii8+PHN0b3Agb2Zmc2V0PSIxIiBzdG9wLWNvbG9yPSIjNzczYWRjIi8+PC9saW5lYXJHcmFkaWVudD48bGluZWFyR3JhZGllbnQgaWQ9ImExNTJiYmEwLWJhMmItNDgzYS1iOGMxLTBhZTdkZTM1NTk5MCIgeDE9IjkuMDUiIHgyPSIxNC43OCIgeTE9IjE0LjYiIHkyPSIxNC42IiBncmFkaWVudFVuaXRzPSJ1c2VyU3BhY2VPblVzZSI+PHN0b3Agb2Zmc2V0PSIwIiBzdG9wLWNvbG9yPSIjYjc3YWY0Ii8+PHN0b3Agb2Zmc2V0PSIxIiBzdG9wLWNvbG9yPSIjNzczYWRjIi8+PC9saW5lYXJHcmFkaWVudD48L2RlZnM+PHBhdGggZmlsbD0idXJsKCNiNzBjOWNmMS1iYWI4LTQ3ZTAtYmJkYi1jZTFjZDY2NGQyNjgpIiBkPSJtNS44IDEuMjItMi44Ni41M3YzLjlsMi44Ni42MSAyLjg3LTEuMTVWMi4yTDUuOCAxLjIyeiIvPjxwYXRoIGZpbGw9Im5vbmUiIGQ9Im01LjkxIDYuMiAyLjYyLTEuMDZBLjIuMiAwIDAgMCA4LjY1IDVWMi4zNmEuMjEuMjEgMCAwIDAtLjEzLS4xOGwtMi42NS0uOWgtLjEybC0yLjYuNDhhLjIuMiAwIDAgMC0uMTUuMTh2My41M2EuMTkuMTkgMCAwIDAgLjE1LjE5bDIuNjMuNTVhLjMyLjMyIDAgMCAwIC4xMy0uMDFaIi8+PHBhdGggZmlsbD0iIzM0MWE2ZSIgZD0iTTIuOTQgMS43NXYzLjlsMi44OS42MXYtNVptMS4yMiAzLjYtLjgxLS4xNnYtM2wuODEtLjEzWm0xLjI2LjIzLS45My0uMTVWMmwuOTMtLjE2WiIvPjxwYXRoIGZpbGw9InVybCgjYmViNjk5NTMtYmQ5Ni00NTE1LTg4NDMtYWMxMjU0NmFmOTM2KSIgZD0ibTExLjk5IDEuMjctMi44Ni41M3YzLjlsMi44Ni42MSAyLjg2LTEuMTZ2LTIuOWwtMi44Ni0uOTh6Ii8+PHBhdGggZmlsbD0iIzM0MWE2ZSIgZD0iTTkuMTMgMS44djMuOWwyLjg3LjYxdi01Wm0xLjIxIDMuNi0uODEtLjE2di0zbC44MS0uMTNabTEuMjYuMjMtLjkzLS4xNVYyLjA1bC45My0uMTdaIi8+PHBhdGggZmlsbD0idXJsKCNhMzljNzZlOC01NDdlLTRlYjQtYmMyNS1kODFjMGY4Y2RhNjIpIiBkPSJtMi44NyA2LjYtMi44Ni41M3YzLjlsMi44Ni42MSAyLjg3LTEuMTVWNy41OEwyLjg3IDYuNnoiLz48cGF0aCBmaWxsPSIjMzQxYTZlIiBkPSJNMCA3LjEzVjExbDIuODkuNjF2LTVabTEuMjEgMy42MS0uODEtLjE3di0zbC44MS0uMTRabTEuMjcuMjYtLjkzLS4xNVY3LjM4bC45My0uMTZaIi8+PHBhdGggZmlsbD0idXJsKCNmMGEyYTQ5MS0xN2RjLTRiYjgtYmJmYy1lZTU4YTVjZjQ3ZGEpIiBkPSJtOS4wNCA2LjU2LTIuODYuNTN2My45bDIuODYuNjIgMi44Ni0xLjE2VjcuNTRsLTIuODYtLjk4eiIvPjxwYXRoIGZpbGw9IiMzNDFhNmUiIGQ9Ik02LjE4IDcuMDlWMTFsMi44OC42MXYtNVptMS4yMSAzLjYxLS44MS0uMTd2LTNsLjgxLS4xNFptMS4yNi4yMi0uOTMtLjE1VjcuMzRsLjkzLS4xNloiLz48cGF0aCBmaWxsPSJ1cmwoI2VmYzZhNTZkLTg1ODUtNDE3ZC05MzFhLTFkYWMyMTE0Y2NkMCkiIGQ9Im0xNS4yMSA2LjYxLTIuODYuNTN2My45bDIuODYuNjEgMi44Ny0xLjE1VjcuNTlsLTIuODctLjk4eiIvPjxwYXRoIGZpbGw9IiMzNDFhNmUiIGQ9Ik0xMi4zNSA3LjE0VjExbDIuODkuNjF2LTVabTEuMjIgMy42MS0uODEtLjE3di0zbC44MS0uMTRabTEuMjYuMjItLjkzLS4xNVY3LjM5bC45My0uMTZaIi8+PHBhdGggZmlsbD0idXJsKCNlMzk5YWE5My0zNDFmLTRkZjItOWMwMi02MDNiODJiNDg0YzIpIiBkPSJtNS43MyAxMi4wNC0yLjg2LjUydjMuOWwyLjg2LjYyIDIuODctMS4xNnYtMi45bC0yLjg3LS45OHoiLz48cGF0aCBmaWxsPSJub25lIiBkPSJtNS44NCAxNyAyLjYxLTFhLjE4LjE4IDAgMCAwIC4xMi0uMTh2LTIuNmEuMi4yIDAgMCAwLS4xMy0uMjJsLTIuNjQtLjlhLjE3LjE3IDAgMCAwLS4xMiAwbC0yLjYuNDdhLjE5LjE5IDAgMCAwLS4xNi4xOXYzLjU0YS4xOS4xOSAwIDAgMCAuMTUuMTlMNS43IDE3YS4yMy4yMyAwIDAgMCAuMTQgMFoiLz48cGF0aCBmaWxsPSIjMzQxYTZlIiBkPSJNMi44NyAxMi41NnYzLjlsMi44OS42MlYxMlptMS4yMiAzLjYxTDMuMjggMTZ2LTNsLjgxLS4xNFptMS4yNi4yMy0uOTMtLjE1di0zLjQ0bC45My0uMTZaIi8+PHBhdGggZmlsbD0idXJsKCNhMTUyYmJhMC1iYTJiLTQ4M2EtYjhjMS0wYWU3ZGUzNTU5OTApIiBkPSJtMTEuOTEgMTIuMDgtMi44Ni41M3YzLjlsMi44Ni42MSAyLjg3LTEuMTV2LTIuOTFsLTIuODctLjk4eiIvPjxwYXRoIGZpbGw9IiMzNDFhNmUiIGQ9Ik05LjA1IDEyLjYxdjMuOWwyLjg5LjYxdi01Wm0xLjIyIDMuNjEtLjgxLS4xN3YtM2wuODEtLjE0Wm0xLjI2LjIyLS45My0uMTV2LTMuNDNsLjkzLS4xNloiLz48L3N2Zz48L2c+PC9zdmc+;direction=east;" parent="1" vertex="1">
          <mxGeometry x="1327.64" y="-749.86" width="116.11" height="116.11" as="geometry" />
        </mxCell>
        <mxCell id="5dTZsmveO14SmgYKzAa9-7" value="" style="edgeStyle=orthogonalEdgeStyle;rounded=0;orthogonalLoop=1;jettySize=auto;html=1;" edge="1" parent="1" source="13902ace-1b4e-4fc7-a85e-33f7af575401" target="5dTZsmveO14SmgYKzAa9-6">
          <mxGeometry relative="1" as="geometry" />
        </mxCell>
        <mxCell id="13902ace-1b4e-4fc7-a85e-33f7af575401" value="" style="shape=image;imageAspect=0;aspect=fixed;image=data:image/svg+xml,PHN2ZyB4bWxucz0iaHR0cDovL3d3dy53My5vcmcvMjAwMC9zdmciIHdpZHRoPSIzMiIgaGVpZ2h0PSIzMiIgc3R5bGU9ImZpbGw6IG51bGw7Ij48Y2lyY2xlIGN4PSIxNiIgY3k9IjE2IiByPSIxNiIgc3R5bGU9ImZpbGw6IHJnYmEoMCwgMCwgMCwgMCk7Ii8+PGcgdHJhbnNmb3JtPSJ0cmFuc2xhdGUoNyw3KSI+PHN2ZyB4bWxucz0iaHR0cDovL3d3dy53My5vcmcvMjAwMC9zdmciIHdpZHRoPSIxOCIgaGVpZ2h0PSIxOCIgdmlld0JveD0iMCAwIDE4IDE4Ij48ZGVmcz48bGluZWFyR3JhZGllbnQgaWQ9ImI4NWUyYmYwLTNhMmYtNGNjMi1hZTVmLTYwZmU1ODgxYTJhNSIgeDE9IjkiIHgyPSI5IiB5MT0iMTUuODM0IiB5Mj0iNS43ODgiIGdyYWRpZW50VW5pdHM9InVzZXJTcGFjZU9uVXNlIj48c3RvcCBvZmZzZXQ9IjAiIHN0b3AtY29sb3I9IiMzMmJlZGQiLz48c3RvcCBvZmZzZXQ9Ii4xNzUiIHN0b3AtY29sb3I9IiMzMmNhZWEiLz48c3RvcCBvZmZzZXQ9Ii40MSIgc3RvcC1jb2xvcj0iIzMyZDJmMiIvPjxzdG9wIG9mZnNldD0iLjc3NSIgc3RvcC1jb2xvcj0iIzMyZDRmNSIvPjwvbGluZWFyR3JhZGllbnQ+PC9kZWZzPjxnIGlkPSJlM2UzMTMzMy0zMWY0LTQwZDgtOTg4Ni1kM2ExYzU4ZDc2NzkiPjxnPjxwYXRoIGZpbGw9InVybCgjYjg1ZTJiZjAtM2EyZi00Y2MyLWFlNWYtNjBmZTU4ODFhMmE1KSIgZD0iTS41IDUuNzg4aDE3djkuNDc4YS41NjguNTY4IDAgMCAxLS41NjguNTY4SDEuMDY4YS41NjguNTY4IDAgMCAxLS41NjgtLjU2OFY1Ljc4OFoiLz48cGF0aCBmaWxsPSIjMDA3OGQ0IiBkPSJNMS4wNzEgMi4xNjZoMTUuODU4YS41NjguNTY4IDAgMCAxIC41NjguNTY4djMuMDU0SC41VjIuNzM0YS41NjguNTY4IDAgMCAxIC41NzEtLjU2OFoiLz48cmVjdCB3aWR0aD0iMTIuNDI2IiBoZWlnaHQ9IjEuNDU5IiB4PSIyLjc4NyIgeT0iMy4yNDgiIGZpbGw9IiNmMmYyZjIiIHJ4PSIuMjg0Ii8+PC9nPjwvZz48L3N2Zz48L2c+PC9zdmc+;direction=north;" parent="1" vertex="1">
          <mxGeometry x="1271.52" y="321.31" width="128.69" height="128.69" as="geometry" />
        </mxCell>
        <mxCell id="8876cfb0-2412-42d2-834d-adc34bd30b69" value="" style="shape=image;imageAspect=0;aspect=fixed;image=data:image/svg+xml,PHN2ZyB4bWxucz0iaHR0cDovL3d3dy53My5vcmcvMjAwMC9zdmciIHdpZHRoPSI0NiIgaGVpZ2h0PSI0NiIgc3R5bGU9ImZpbGw6ICNmZmZmZmY7Ij48Y2lyY2xlIGN4PSIyMyIgY3k9IjIzIiByPSIyMyIgc3R5bGU9ImZpbGw6ICMwMDAwMDA7Ii8+PGcgdHJhbnNmb3JtPSJ0cmFuc2xhdGUoMTEuNSw3KSI+PHN2ZyB4bWxucz0iaHR0cDovL3d3dy53My5vcmcvMjAwMC9zdmciIHdpZHRoPSIyMyIgaGVpZ2h0PSIzMiIgdmlld0JveD0iMCAwIDIzIDMyIj48cGF0aCBkPSJNMjIuODU3IDI0Ljk4MmMwIDIuNjA3LTEuNzE0IDQuNzMyLTMuODA0IDQuNzMySDMuODAzYy0yLjA4OSAwLTMuODA0LTIuMTI1LTMuODA0LTQuNzMyIDAtNC42OTYgMS4xNjEtMTAuMTI1IDUuODM5LTEwLjEyNWE3Ljk3MiA3Ljk3MiAwIDAgMCAxMS4xNzggMGM0LjY3OSAwIDUuODM5IDUuNDI5IDUuODM5IDEwLjEyNXpNMTguMjg2IDkuMTQzYzAgMy43ODYtMy4wNzEgNi44NTctNi44NTcgNi44NTdzLTYuODU3LTMuMDcxLTYuODU3LTYuODU3IDMuMDcxLTYuODU3IDYuODU3LTYuODU3IDYuODU3IDMuMDcxIDYuODU3IDYuODU3eiIvPjwvc3ZnPjwvZz48L3N2Zz4=;direction=north;" parent="1" vertex="1">
          <mxGeometry x="1271.5247139244154" y="484.0247139244153" width="156.9505721511693" height="156.9505721511693" as="geometry" />
        </mxCell>
        <mxCell id="7c446921-d6df-4a66-b611-a5ef65f3e5bd" value="Developer Commit in repository" style="text;labelPosition=right;verticalLabelPosition=bottom;fontColor=#000000;fontSize=25;rotation=-90;spacingLeft=10;html=1;" parent="1" vertex="1">
          <mxGeometry x="468.75" y="1293.75" as="geometry" />
        </mxCell>
        <mxCell id="68506977-c25f-499f-90bf-ac42a031e5be" value="&lt;div&gt;Branch main / development / testing / Stagging&lt;/div&gt;&lt;div&gt;&lt;br/&gt;&lt;/div&gt;" style="text;labelPosition=right;verticalLabelPosition=bottom;fontColor=#000000;fontSize=25;rotation=-90;spacingLeft=10;html=1;" parent="1" vertex="1">
          <mxGeometry x="581.25" y="675" as="geometry" />
        </mxCell>
        <mxCell id="7e08100e-a4a9-4fae-bab9-14321661f893" value="&lt;div&gt;Execute GitHub Actions to Deployment&lt;/div&gt;&lt;div&gt;&lt;br/&gt;&lt;/div&gt;" style="text;labelPosition=right;verticalLabelPosition=bottom;fontColor=#000000;fontSize=25;rotation=-90;spacingLeft=10;html=1;" parent="1" vertex="1">
          <mxGeometry x="412.5" y="-37.5" as="geometry" />
        </mxCell>
        <mxCell id="5f93e0fd-19d4-4150-87f4-d561d554d15e" value="&lt;div&gt;Deployment into resource group&lt;/div&gt;&lt;div&gt;&lt;br/&gt;&lt;/div&gt;" style="text;labelPosition=right;verticalLabelPosition=bottom;fontColor=#000000;fontSize=25;rotation=0;spacingLeft=10;html=1;" parent="1" vertex="1">
          <mxGeometry x="581.25" y="-600" as="geometry" />
        </mxCell>
        <mxCell id="b0ab1ac0-d5c1-4cf7-9487-f58ca533a64b" value="&lt;div&gt;Push app cointainer to registry&lt;/div&gt;&lt;div&gt;&lt;br/&gt;&lt;/div&gt;" style="text;labelPosition=right;verticalLabelPosition=bottom;fontColor=#000000;fontSize=25;rotation=-90;spacingLeft=10;html=1;" parent="1" vertex="1">
          <mxGeometry x="600" y="-712.5" as="geometry" />
        </mxCell>
        <mxCell id="0d61ac86-fda3-4c50-8a34-f08e1ec86fbf" value="&lt;div&gt;group mlmodel flowers api&lt;/div&gt;&lt;div&gt;&lt;br/&gt;&lt;/div&gt;" style="text;labelPosition=right;verticalLabelPosition=bottom;fontColor=#000000;fontSize=25;rotation=-90;spacingLeft=10;html=1;" parent="1" vertex="1">
          <mxGeometry x="1106.25" y="-787.5" as="geometry" />
        </mxCell>
        <mxCell id="67df2e98-85d7-4379-bc48-93eb2a139609" value="&lt;div&gt;Database postgreSQL&lt;/div&gt;&lt;div&gt;&lt;br/&gt;&lt;/div&gt;" style="text;labelPosition=right;verticalLabelPosition=bottom;fontColor=#000000;fontSize=25;rotation=-90;spacingLeft=10;html=1;" parent="1" vertex="1">
          <mxGeometry x="1462.5" y="-843.75" as="geometry" />
        </mxCell>
        <mxCell id="f63e585c-da46-4dba-886c-32ff86724d60" value="LoadBalancer " style="text;labelPosition=right;verticalLabelPosition=bottom;fontColor=#000000;fontSize=25;rotation=-90;spacingLeft=10;html=1;" parent="1" vertex="1">
          <mxGeometry x="1443.75" y="-300" as="geometry" />
        </mxCell>
        <mxCell id="31f53d7d-a7b4-46bb-a1bf-ab319a93bc1e" value="deployment into AKS" style="text;labelPosition=right;verticalLabelPosition=bottom;fontColor=#000000;fontSize=25;rotation=-90;spacingLeft=10;html=1;" parent="1" vertex="1">
          <mxGeometry x="1462.5" y="-506.25" as="geometry" />
        </mxCell>
        <mxCell id="62ce128c-058b-4cdb-97fc-9d7ded12e08c" value="Users  can interactive with mlmodel flower with browser" style="text;labelPosition=right;verticalLabelPosition=bottom;fontColor=#000000;fontSize=25;rotation=-90;spacingLeft=10;html=1;" parent="1" vertex="1">
          <mxGeometry x="1500" y="843.75" as="geometry" />
        </mxCell>
        <mxCell id="62de545f-bed6-4ca5-8513-08511b6ee7c6" value="1" style="text;labelPosition=right;verticalLabelPosition=bottom;fontColor=#000000;fontSize=80;rotation=-90;spacingLeft=10;html=1;" parent="1" vertex="1">
          <mxGeometry x="543.75" y="1143.75" as="geometry" />
        </mxCell>
        <mxCell id="1f3e1836-100a-46ee-8f10-71328a5cbfac" value="&lt;div&gt;2&lt;/div&gt;&lt;div&gt;&lt;br/&gt;&lt;/div&gt;" style="text;labelPosition=right;verticalLabelPosition=bottom;fontColor=#000000;fontSize=80;rotation=-90;spacingLeft=10;html=1;" parent="1" vertex="1">
          <mxGeometry x="393.75" y="450" as="geometry" />
        </mxCell>
        <mxCell id="03ebf2de-efb8-4738-a5ee-467b62b7728e" value="&lt;div&gt;3&lt;/div&gt;&lt;div&gt;&lt;br/&gt;&lt;/div&gt;" style="text;labelPosition=right;verticalLabelPosition=bottom;fontColor=#000000;fontSize=80;rotation=-90;spacingLeft=10;html=1;" parent="1" vertex="1">
          <mxGeometry x="562.5" y="-300" as="geometry" />
        </mxCell>
        <mxCell id="9e8cb7db-3f2b-4c48-bd65-f86fc18c3f16" value="4" style="text;labelPosition=right;verticalLabelPosition=bottom;fontColor=#000000;fontSize=80;rotation=-90;spacingLeft=10;html=1;" parent="1" vertex="1">
          <mxGeometry x="412.5" y="-918.75" as="geometry" />
        </mxCell>
        <mxCell id="0b3f93b0-b889-4ae4-abeb-75280867a597" value="5" style="text;labelPosition=right;verticalLabelPosition=bottom;fontColor=#000000;fontSize=80;rotation=-90;spacingLeft=10;html=1;" parent="1" vertex="1">
          <mxGeometry x="825" y="-731.25" as="geometry" />
        </mxCell>
        <mxCell id="4ff87974-3fd0-42b7-98e3-996380f51725" value="Diagram Flow for Deploying &#39;mlmodelflower&#39; from GitHub to AKS" style="text;labelPosition=right;verticalLabelPosition=bottom;fontColor=#000000;fontSize=56;rotation=-90;spacingLeft=10;html=1;" parent="1" vertex="1">
          <mxGeometry x="225" y="1087.5" as="geometry" />
        </mxCell>
        <mxCell id="5dTZsmveO14SmgYKzAa9-4" value="" style="shape=waypoint;sketch=0;size=6;pointerEvents=1;points=[];fillColor=default;resizable=0;rotatable=0;perimeter=centerPerimeter;snapToPoint=1;" vertex="1" parent="1">
          <mxGeometry x="1375.6950000000002" y="-897.915" width="20" height="20" as="geometry" />
        </mxCell>
        <mxCell id="5dTZsmveO14SmgYKzAa9-6" value="" style="shape=waypoint;sketch=0;size=6;pointerEvents=1;points=[];fillColor=default;resizable=0;rotatable=0;perimeter=centerPerimeter;snapToPoint=1;" vertex="1" parent="1">
          <mxGeometry x="1363.755" y="-300.005" width="20" height="20" as="geometry" />
        </mxCell>
      </root>
    </mxGraphModel>
  </diagram>
</mxfile>
